# Blender v2.92.0 OBJ File: 'card-border-1.blend'
# www.blender.org
mtllib card-border-1.mtl
o Plane_Plane.004
v 0.373108 -0.540402 -0.000000
v 0.341829 -0.540402 -0.000000
v -0.341829 -0.540402 -0.000000
v -0.373108 -0.540402 -0.000000
v 0.373108 0.540402 0.000000
v 0.341829 0.540402 0.000000
v -0.341829 0.540402 0.000000
v -0.373108 0.540402 0.000000
v -0.373108 -0.509124 -0.000000
v -0.373108 0.509124 0.000000
v -0.341829 -0.509124 -0.000000
v -0.341829 0.509124 0.000000
v 0.341829 -0.509124 -0.000000
v 0.341829 0.509124 0.000000
v 0.373108 -0.509124 -0.000000
v 0.373108 0.509124 0.000000
vt 0.090909 0.909091
vt 0.181818 0.909091
vt 0.181818 1.000000
vt 0.090909 1.000000
vt 0.818182 0.909091
vt 0.818182 1.000000
vt 0.909091 0.909091
vt 0.909091 1.000000
vt 0.090909 0.909091
vt 0.090909 1.000000
vt 0.181818 1.000000
vt 0.181818 0.909091
vt 0.818182 0.909091
vt 0.909091 0.909091
vt 0.818182 1.000000
vt 0.909091 1.000000
vn 0.0000 -0.0000 1.0000
usemtl None
s off
f 10/1/1 12/2/1 7/3/1 8/4/1
f 12/2/1 14/5/1 6/6/1 7/3/1
f 14/5/1 16/7/1 5/8/1 6/6/1
f 9/9/1 4/10/1 3/11/1 11/12/1
f 13/13/1 15/14/1 16/7/1 14/5/1
f 2/15/1 13/13/1 11/12/1 3/11/1
f 13/13/1 2/15/1 1/16/1 15/14/1
f 11/12/1 12/2/1 10/1/1 9/9/1
