# Blender v2.92.0 OBJ File: ''
# www.blender.org
mtllib rocket-projectile.mtl
o Plane.001
v -0.171449 -0.216567 -0.000000
v 0.180472 -0.216567 -0.000000
v 0.036094 0.216567 0.000000
v -0.036095 0.216567 0.000000
v -0.009024 -0.216567 -0.000000
v 0.108283 -0.072189 -0.000000
v 0.108283 0.072189 0.000000
v -0.108283 -0.072189 -0.000000
v -0.108283 0.072189 0.000000
v -0.000000 0.051770 0.000000
v -0.000000 -0.118906 -0.000000
vt 1.000000 0.666667
vt 1.000000 1.000000
vt 0.500000 0.619523
vt 0.666667 1.000000
vt 0.333333 1.000000
vt 1.000000 0.333333
vt 0.000000 1.000000
vt 0.000000 0.666667
vt 0.000000 0.333333
vt 0.666667 0.000000
vt 1.000000 0.000000
vt 0.500000 0.225474
vt 0.000000 0.000000
vt 0.333333 0.000000
vn -0.0000 -0.0000 1.0000
usemtl None
s 1
f 7/1/1 3/2/1 10/3/1
f 3/4/1 4/5/1 10/3/1
f 6/6/1 7/1/1 10/3/1
f 4/7/1 9/8/1 10/3/1
f 9/8/1 8/9/1 10/3/1
f 5/10/1 2/11/1 11/12/1
f 2/11/1 6/6/1 11/12/1
f 6/6/1 10/3/1 11/12/1
f 10/3/1 8/9/1 11/12/1
f 8/9/1 1/13/1 11/12/1
f 1/13/1 5/14/1 11/12/1
